# xmcd
#
# Track frame offsets: 
#        150
#        26988
#        47264
#
# Disc length: 1050 seconds
#
# Revision: 0
# Processed by: cddbd v1.5PL3 Copyright (c) Steve Scherf et al.
# Submitted via: ExactAudioCopy v0.95a4
#
DISCID=1c041803
DTITLE=Moby - 18 [V2CP 123&124] (Disc2) (Bonus CD)
DYEAR=2002
DGENRE=Electronic
TTITLE0=We Are All Made Of Stars (Cornelius Remix)
TTITLE1=Soul To Love
TTITLE2=We Are All Made Of Stars (Slow Synth)
EXTD=
EXTT0=
EXTT1=
EXTT2=
PLAYORDER=
